{
	"asset":{
		"generator":"Khronos glTF Blender I/O v4.2.60",
		"version":"2.0"
	},
	"scene":0,
	"scenes":[
		{
			"name":"Scene",
			"nodes":[
				0
			]
		}
	],
	"nodes":[
		{
			"mesh":0,
			"name":"model",
			"rotation":[
				0.7071068286895752,
				0,
				0,
				0.7071068286895752
			],
			"scale":[
				5.201083660125732,
				5.201083660125732,
				5.201083660125732
			],
			"translation":[
				0,
				4.9523420333862305,
				0
			]
		}
	],
	"materials":[
		{
			"doubleSided":true,
			"name":"Material.002",
			"normalTexture":{
				"index":0
			},
			"pbrMetallicRoughness":{
				"baseColorTexture":{
					"index":1
				},
				"metallicRoughnessTexture":{
					"index":2
				}
			}
		}
	],
	"meshes":[
		{
			"name":"model.001",
			"primitives":[
				{
					"attributes":{
						"POSITION":0,
						"NORMAL":1,
						"TEXCOORD_0":2
					},
					"indices":3,
					"material":0
				}
			]
		}
	],
	"textures":[
		{
			"sampler":0,
			"source":0
		},
		{
			"sampler":0,
			"source":1
		},
		{
			"sampler":0,
			"source":2
		}
	],
	"images":[
		{
			"mimeType":"image/png",
			"name":"texture_normal",
			"uri":"texture_normal.png"
		},
		{
			"mimeType":"image/png",
			"name":"texture_diffuse",
			"uri":"texture_diffuse.png"
		},
		{
			"mimeType":"image/png",
			"name":"texture_metallic.png-texture_roughness.png",
			"uri":"texture_metallic_png-texture_roughness_png.png"
		}
	],
	"accessors":[
		{
			"bufferView":0,
			"componentType":5126,
			"count":18311,
			"max":[
				0.28080201148986816,
				0.22201800346374512,
				0.9553449749946594
			],
			"min":[
				-0.27957600355148315,
				-0.22163499891757965,
				-0.9542160034179688
			],
			"type":"VEC3"
		},
		{
			"bufferView":1,
			"componentType":5126,
			"count":18311,
			"type":"VEC3"
		},
		{
			"bufferView":2,
			"componentType":5126,
			"count":18311,
			"type":"VEC2"
		},
		{
			"bufferView":3,
			"componentType":5123,
			"count":92964,
			"type":"SCALAR"
		}
	],
	"bufferViews":[
		{
			"buffer":0,
			"byteLength":219732,
			"byteOffset":0,
			"target":34962
		},
		{
			"buffer":0,
			"byteLength":219732,
			"byteOffset":219732,
			"target":34962
		},
		{
			"buffer":0,
			"byteLength":146488,
			"byteOffset":439464,
			"target":34962
		},
		{
			"buffer":0,
			"byteLength":185928,
			"byteOffset":585952,
			"target":34963
		}
	],
	"samplers":[
		{
			"magFilter":9729,
			"minFilter":9987
		}
	],
	"buffers":[
		{
			"byteLength":771880,
			"uri":"estensoro.bin"
		}
	]
}
